<mxfile host="app.diagrams.net" agent="Mozilla/5.0 (Windows NT 10.0; Win64; x64) AppleWebKit/537.36 (KHTML, like Gecko) Chrome/128.0.0.0 Safari/537.36" version="24.7.13">
  <diagram name="Page-1" id="2g0HqS77D09MyAridkx4">
    <mxGraphModel dx="1050" dy="583" grid="1" gridSize="10" guides="1" tooltips="1" connect="1" arrows="1" fold="1" page="1" pageScale="1" pageWidth="850" pageHeight="1100" math="0" shadow="0">
      <root>
        <mxCell id="0" />
        <mxCell id="1" parent="0" />
        <mxCell id="Slap6VVCXJqYbtbtnIO4-6" style="edgeStyle=orthogonalEdgeStyle;rounded=0;orthogonalLoop=1;jettySize=auto;html=1;entryX=0;entryY=0.5;entryDx=0;entryDy=0;" edge="1" parent="1" source="Slap6VVCXJqYbtbtnIO4-1" target="Slap6VVCXJqYbtbtnIO4-3">
          <mxGeometry relative="1" as="geometry" />
        </mxCell>
        <mxCell id="Slap6VVCXJqYbtbtnIO4-1" value="" style="rounded=0;whiteSpace=wrap;html=1;fillColor=#dae8fc;gradientColor=#7ea6e0;strokeColor=#6c8ebf;" vertex="1" parent="1">
          <mxGeometry x="40" y="120" width="200" height="160" as="geometry" />
        </mxCell>
        <mxCell id="Slap6VVCXJqYbtbtnIO4-2" value="&lt;b&gt;module-ec2-demo&lt;/b&gt;" style="text;html=1;align=center;verticalAlign=middle;resizable=0;points=[];autosize=1;strokeColor=none;fillColor=none;" vertex="1" parent="1">
          <mxGeometry x="75" y="140" width="130" height="30" as="geometry" />
        </mxCell>
        <mxCell id="Slap6VVCXJqYbtbtnIO4-3" value="" style="rounded=0;whiteSpace=wrap;html=1;fillColor=#d5e8d4;gradientColor=#97d077;strokeColor=#82b366;" vertex="1" parent="1">
          <mxGeometry x="470" y="120" width="200" height="160" as="geometry" />
        </mxCell>
        <mxCell id="Slap6VVCXJqYbtbtnIO4-4" value="&lt;b&gt;terraform-aws-ec2&lt;/b&gt;" style="text;html=1;align=center;verticalAlign=middle;resizable=0;points=[];autosize=1;strokeColor=none;fillColor=none;" vertex="1" parent="1">
          <mxGeometry x="505" y="130" width="130" height="30" as="geometry" />
        </mxCell>
        <mxCell id="Slap6VVCXJqYbtbtnIO4-5" value="" style="sketch=0;aspect=fixed;pointerEvents=1;shadow=0;dashed=0;html=1;strokeColor=none;labelPosition=center;verticalLabelPosition=bottom;verticalAlign=top;align=center;fillColor=#00188D;shape=mxgraph.mscae.enterprise.code_file" vertex="1" parent="1">
          <mxGeometry x="533.25" y="170" width="73.5" height="75" as="geometry" />
        </mxCell>
        <mxCell id="Slap6VVCXJqYbtbtnIO4-7" value="&lt;b&gt;values&lt;/b&gt;" style="text;html=1;align=center;verticalAlign=middle;resizable=0;points=[];autosize=1;strokeColor=none;fillColor=none;" vertex="1" parent="1">
          <mxGeometry x="240" y="170" width="60" height="30" as="geometry" />
        </mxCell>
        <mxCell id="Slap6VVCXJqYbtbtnIO4-8" value="&lt;b&gt;provider&lt;/b&gt;" style="text;html=1;align=center;verticalAlign=middle;resizable=0;points=[];autosize=1;strokeColor=none;fillColor=none;" vertex="1" parent="1">
          <mxGeometry x="105" y="185" width="70" height="30" as="geometry" />
        </mxCell>
        <mxCell id="Slap6VVCXJqYbtbtnIO4-9" value="&lt;b&gt;module-developer&lt;/b&gt;" style="text;html=1;align=center;verticalAlign=middle;resizable=0;points=[];autosize=1;strokeColor=none;fillColor=none;" vertex="1" parent="1">
          <mxGeometry x="505" y="80" width="130" height="30" as="geometry" />
        </mxCell>
        <mxCell id="Slap6VVCXJqYbtbtnIO4-10" value="&lt;b&gt;module-user&lt;/b&gt;" style="text;html=1;align=center;verticalAlign=middle;resizable=0;points=[];autosize=1;strokeColor=none;fillColor=none;" vertex="1" parent="1">
          <mxGeometry x="105" y="80" width="100" height="30" as="geometry" />
        </mxCell>
        <mxCell id="Slap6VVCXJqYbtbtnIO4-12" style="edgeStyle=orthogonalEdgeStyle;rounded=0;orthogonalLoop=1;jettySize=auto;html=1;entryX=0;entryY=0.75;entryDx=0;entryDy=0;" edge="1" parent="1" source="Slap6VVCXJqYbtbtnIO4-11" target="Slap6VVCXJqYbtbtnIO4-3">
          <mxGeometry relative="1" as="geometry" />
        </mxCell>
        <mxCell id="Slap6VVCXJqYbtbtnIO4-11" value="" style="rounded=0;whiteSpace=wrap;html=1;fillColor=#dae8fc;gradientColor=#7ea6e0;strokeColor=#6c8ebf;" vertex="1" parent="1">
          <mxGeometry x="55" y="350" width="200" height="160" as="geometry" />
        </mxCell>
        <mxCell id="Slap6VVCXJqYbtbtnIO4-14" style="edgeStyle=orthogonalEdgeStyle;rounded=0;orthogonalLoop=1;jettySize=auto;html=1;entryX=0.5;entryY=1;entryDx=0;entryDy=0;" edge="1" parent="1" source="Slap6VVCXJqYbtbtnIO4-13" target="Slap6VVCXJqYbtbtnIO4-3">
          <mxGeometry relative="1" as="geometry" />
        </mxCell>
        <mxCell id="Slap6VVCXJqYbtbtnIO4-13" value="" style="rounded=0;whiteSpace=wrap;html=1;fillColor=#dae8fc;gradientColor=#7ea6e0;strokeColor=#6c8ebf;" vertex="1" parent="1">
          <mxGeometry x="470" y="350" width="200" height="160" as="geometry" />
        </mxCell>
        <mxCell id="Slap6VVCXJqYbtbtnIO4-15" value="" style="rounded=0;whiteSpace=wrap;html=1;fillColor=#dae8fc;gradientColor=#7ea6e0;strokeColor=#6c8ebf;" vertex="1" parent="1">
          <mxGeometry x="730" y="350" width="200" height="160" as="geometry" />
        </mxCell>
        <mxCell id="Slap6VVCXJqYbtbtnIO4-16" style="edgeStyle=orthogonalEdgeStyle;rounded=0;orthogonalLoop=1;jettySize=auto;html=1;entryX=1;entryY=0.462;entryDx=0;entryDy=0;entryPerimeter=0;" edge="1" parent="1" source="Slap6VVCXJqYbtbtnIO4-15" target="Slap6VVCXJqYbtbtnIO4-3">
          <mxGeometry relative="1" as="geometry" />
        </mxCell>
      </root>
    </mxGraphModel>
  </diagram>
</mxfile>
